<?xml version="1.0" encoding="UTF-8"?>
<svg version="1.1" xmlns="http://www.w3.org/2000/svg" width="48" height="48">
<path d="M0 0 C15.84 0 31.68 0 48 0 C48 15.84 48 31.68 48 48 C32.16 48 16.32 48 0 48 C0 32.16 0 16.32 0 0 Z " fill="#030200" transform="translate(0,0)"/>
<path d="M0 0 C1.32 0 2.64 0 4 0 C4 8.58 4 17.16 4 26 C2.68 26 1.36 26 0 26 C0 20.39 0 14.78 0 9 C-0.66 9 -1.32 9 -2 9 C-2.268125 9.763125 -2.53625 10.52625 -2.8125 11.3125 C-3.97728889 13.94860118 -4.65997402 15.35331505 -7 17 C-9.375 17.625 -9.375 17.625 -12 17 C-14.00461561 14.80420851 -15.41150014 12.54159977 -17 10 C-17.33 15.28 -17.66 20.56 -18 26 C-19.32 25.67 -20.64 25.34 -22 25 C-22 17.41 -22 9.82 -22 2 C-16.35239697 3.12952061 -16.35239697 3.12952061 -13.6875 6.9375 C-13.17574219 7.64777344 -12.66398437 8.35804687 -12.13671875 9.08984375 C-11 11 -11 11 -11 13 C-7.26659452 9.4862066 -4.37533424 5.8422599 -1.52734375 1.57421875 C-1.02332031 1.05472656 -0.51929687 0.53523437 0 0 Z " fill="#EFCA00" transform="translate(33,11)"/>
</svg>
